<mxfile host="app.diagrams.net" modified="2023-10-05T20:40:41.479Z" agent="Mozilla/5.0 (X11; Linux x86_64) AppleWebKit/537.36 (KHTML, like Gecko) Chrome/117.0.0.0 Safari/537.36" etag="UNXs_y8ljLLtfaDnNi47" version="22.0.3" type="github">
  <diagram name="Página-1" id="N1S3ki2WG16ZbRy9KB7t">
    <mxGraphModel dx="1434" dy="728" grid="1" gridSize="10" guides="1" tooltips="1" connect="1" arrows="1" fold="1" page="1" pageScale="1" pageWidth="827" pageHeight="1169" math="0" shadow="0">
      <root>
        <mxCell id="0" />
        <mxCell id="1" parent="0" />
        <mxCell id="qg73nQPkdhKzhitgbBPu-1" value="«interface»&lt;br&gt;&lt;b&gt;ReprodutorMusical&lt;/b&gt;" style="html=1;whiteSpace=wrap;" vertex="1" parent="1">
          <mxGeometry x="50" y="100" width="190" height="50" as="geometry" />
        </mxCell>
        <mxCell id="qg73nQPkdhKzhitgbBPu-2" value="«interface»&lt;br&gt;&lt;b&gt;NavegadorInternet&lt;/b&gt;" style="html=1;whiteSpace=wrap;" vertex="1" parent="1">
          <mxGeometry x="320" y="100" width="140" height="50" as="geometry" />
        </mxCell>
        <mxCell id="qg73nQPkdhKzhitgbBPu-3" value="«interface»&lt;br&gt;&lt;b&gt;AparelhoTelefonico&lt;br&gt;&lt;br&gt;&lt;/b&gt;" style="html=1;whiteSpace=wrap;" vertex="1" parent="1">
          <mxGeometry x="560" y="100" width="140" height="50" as="geometry" />
        </mxCell>
        <mxCell id="qg73nQPkdhKzhitgbBPu-4" value="&lt;div style=&quot;text-align: left;&quot;&gt;&lt;span data-darkreader-inline-color=&quot;&quot; data-darkreader-inline-bgcolor=&quot;&quot; style=&quot;background-color: initial; color: rgb(0, 0, 0); --darkreader-inline-bgcolor: initial; --darkreader-inline-color: #e8e6e3;&quot;&gt;+ tocar()&lt;/span&gt;&lt;/div&gt;&lt;div style=&quot;text-align: left;&quot;&gt;&lt;span data-darkreader-inline-color=&quot;&quot; data-darkreader-inline-bgcolor=&quot;&quot; style=&quot;background-color: initial; color: rgb(0, 0, 0); --darkreader-inline-bgcolor: initial; --darkreader-inline-color: #e8e6e3;&quot;&gt;+ pausar()&lt;/span&gt;&lt;/div&gt;&lt;div style=&quot;text-align: left;&quot;&gt;&lt;span data-darkreader-inline-color=&quot;&quot; data-darkreader-inline-bgcolor=&quot;&quot; style=&quot;background-color: initial; color: rgb(0, 0, 0); --darkreader-inline-bgcolor: initial; --darkreader-inline-color: #e8e6e3;&quot;&gt;+ selecionarMusica(musica:String)&lt;/span&gt;&lt;/div&gt;" style="rounded=0;whiteSpace=wrap;html=1;" vertex="1" parent="1">
          <mxGeometry x="50" y="150" width="190" height="90" as="geometry" />
        </mxCell>
        <mxCell id="qg73nQPkdhKzhitgbBPu-5" value="+ ligar(numero: String)&lt;br&gt;+ atender()&lt;br&gt;+ iniciarCorreioVoz()" style="rounded=0;whiteSpace=wrap;html=1;align=left;" vertex="1" parent="1">
          <mxGeometry x="320" y="150" width="141" height="90" as="geometry" />
        </mxCell>
        <mxCell id="qg73nQPkdhKzhitgbBPu-6" value="+ exibirPagina(url: String)&lt;br&gt;+ adicionarNovaAba()&lt;br&gt;+ atualizarPagina()" style="rounded=0;whiteSpace=wrap;html=1;align=left;" vertex="1" parent="1">
          <mxGeometry x="560" y="150" width="140" height="90" as="geometry" />
        </mxCell>
        <mxCell id="qg73nQPkdhKzhitgbBPu-10" style="edgeStyle=orthogonalEdgeStyle;rounded=0;orthogonalLoop=1;jettySize=auto;html=1;exitX=0.5;exitY=0;exitDx=0;exitDy=0;entryX=0.5;entryY=1;entryDx=0;entryDy=0;" edge="1" parent="1" source="qg73nQPkdhKzhitgbBPu-7" target="qg73nQPkdhKzhitgbBPu-5">
          <mxGeometry relative="1" as="geometry" />
        </mxCell>
        <mxCell id="qg73nQPkdhKzhitgbBPu-7" value="iPhone" style="rounded=0;whiteSpace=wrap;html=1;fontStyle=1" vertex="1" parent="1">
          <mxGeometry x="275" y="360" width="230" height="40" as="geometry" />
        </mxCell>
        <mxCell id="qg73nQPkdhKzhitgbBPu-11" style="edgeStyle=orthogonalEdgeStyle;rounded=0;orthogonalLoop=1;jettySize=auto;html=1;exitX=1;exitY=0.5;exitDx=0;exitDy=0;entryX=0.571;entryY=1;entryDx=0;entryDy=0;entryPerimeter=0;" edge="1" parent="1" source="qg73nQPkdhKzhitgbBPu-7" target="qg73nQPkdhKzhitgbBPu-6">
          <mxGeometry relative="1" as="geometry" />
        </mxCell>
        <mxCell id="qg73nQPkdhKzhitgbBPu-12" style="edgeStyle=orthogonalEdgeStyle;rounded=0;orthogonalLoop=1;jettySize=auto;html=1;exitX=0;exitY=0.5;exitDx=0;exitDy=0;entryX=0.353;entryY=0.989;entryDx=0;entryDy=0;entryPerimeter=0;" edge="1" parent="1" source="qg73nQPkdhKzhitgbBPu-7" target="qg73nQPkdhKzhitgbBPu-4">
          <mxGeometry relative="1" as="geometry" />
        </mxCell>
      </root>
    </mxGraphModel>
  </diagram>
</mxfile>
